<svg width="68" height="19" viewBox="0 0 68 19" fill="none" xmlns="http://www.w3.org/2000/svg">
<path d="M0.42 14V0.0599995H3.82L7.72 10.48H7.3L11.22 0.0599995H14.6V14H12.28V2.76L12.48 2.8L8.64 12.78H6.38L2.52 2.8L2.74 2.76V14H0.42ZM17.8917 14V4.14H20.1117V14H17.8917ZM17.7917 2.52V0.0599995H20.2117V2.52H17.7917ZM27.3969 18.28C25.9435 18.28 24.7969 18.0133 23.9569 17.48C23.1169 16.96 22.6969 16.2467 22.6969 15.34C22.6969 15.26 22.6969 15.1667 22.6969 15.06C22.7102 14.9533 22.7302 14.8467 22.7569 14.74L25.4369 13L26.0369 13.58L24.7369 15.2C24.7235 15.24 24.7169 15.2733 24.7169 15.3C24.7169 15.34 24.7169 15.38 24.7169 15.42C24.7169 15.8333 24.9635 16.1467 25.4569 16.36C25.9635 16.5867 26.6102 16.7 27.3969 16.7C28.0635 16.7 28.5969 16.6067 28.9969 16.42C29.3969 16.2467 29.5969 15.98 29.5969 15.62C29.5969 15.42 29.5369 15.2533 29.4169 15.12C29.2969 15 29.1169 14.9 28.8769 14.82C28.6369 14.74 28.3369 14.6667 27.9769 14.6C27.6302 14.5467 27.2169 14.4933 26.7369 14.44C26.1369 14.3467 25.5435 14.2133 24.9569 14.04C24.3835 13.8667 23.9035 13.6067 23.5169 13.26C23.1435 12.9133 22.9569 12.4533 22.9569 11.88C22.9569 11.3733 23.1302 10.9133 23.4769 10.5C23.8235 10.0733 24.2835 9.72667 24.8569 9.46L25.9969 10.34C25.6235 10.42 25.3435 10.56 25.1569 10.76C24.9702 10.9467 24.8769 11.1733 24.8769 11.44C24.8769 11.6667 24.9635 11.8533 25.1369 12C25.3102 12.1333 25.5569 12.24 25.8769 12.32C26.2102 12.3867 26.6035 12.4533 27.0569 12.52C27.7369 12.6 28.3635 12.6933 28.9369 12.8C29.5102 12.9067 30.0102 13.06 30.4369 13.26C30.8635 13.4467 31.1902 13.7067 31.4169 14.04C31.6569 14.3733 31.7769 14.8067 31.7769 15.34C31.7769 16.2867 31.3902 17.0133 30.6169 17.52C29.8569 18.0267 28.7835 18.28 27.3969 18.28ZM27.1769 11.14C26.3769 11.14 25.6702 10.9867 25.0569 10.68C24.4435 10.3733 23.9635 9.95333 23.6169 9.42C23.2835 8.87333 23.1169 8.26 23.1169 7.58C23.1169 6.84667 23.2969 6.21333 23.6569 5.68C24.0169 5.13333 24.4969 4.71333 25.0969 4.42C25.7102 4.11333 26.3769 3.96 27.0969 3.96C27.8169 3.96 28.4769 4.11333 29.0769 4.42C29.6769 4.71333 30.1569 5.14 30.5169 5.7C30.8902 6.24667 31.0769 6.9 31.0769 7.66C31.0769 8.35333 30.9102 8.96667 30.5769 9.5C30.2569 10.02 29.8035 10.4267 29.2169 10.72C28.6302 11 27.9502 11.14 27.1769 11.14ZM27.1369 9.36C27.7102 9.36 28.1435 9.18667 28.4369 8.84C28.7302 8.48 28.8769 8.05333 28.8769 7.56C28.8769 7.02667 28.7169 6.6 28.3969 6.28C28.0769 5.94667 27.6569 5.78 27.1369 5.78C26.5902 5.78 26.1502 5.94667 25.8169 6.28C25.4969 6.6 25.3369 7.02 25.3369 7.54C25.3369 8.04667 25.4902 8.48 25.7969 8.84C26.1035 9.18667 26.5502 9.36 27.1369 9.36ZM30.4369 6.14L28.8169 5.1L31.0369 3.3L32.1769 4.68L30.4369 6.14ZM34.2875 14V0.0599995H36.5075V6.32L36.1075 6.42C36.2808 5.84667 36.5342 5.38 36.8675 5.02C37.2142 4.66 37.6075 4.39333 38.0475 4.22C38.4875 4.04667 38.9542 3.96 39.4475 3.96C40.5542 3.96 41.4142 4.28 42.0275 4.92C42.6542 5.54667 42.9675 6.44667 42.9675 7.62V14H40.7475V8.44C40.7475 7.56 40.5875 6.91333 40.2675 6.5C39.9475 6.08667 39.4542 5.88 38.7875 5.88C38.0408 5.88 37.4742 6.14667 37.0875 6.68C36.7008 7.21333 36.5075 8.05333 36.5075 9.2V14H34.2875ZM49.4831 14.18C48.9898 14.18 48.5231 14.0867 48.0831 13.9C47.6565 13.7 47.3165 13.3867 47.0631 12.96C46.8098 12.52 46.6831 11.9467 46.6831 11.24V1.74L48.9231 0.5V10.62C48.9231 11.18 49.0031 11.6133 49.1631 11.92C49.3365 12.2133 49.6431 12.36 50.0831 12.36C50.2165 12.36 50.3698 12.3467 50.5431 12.32C50.7298 12.28 50.9231 12.2333 51.1231 12.18V13.9C50.8565 13.9933 50.5831 14.06 50.3031 14.1C50.0365 14.1533 49.7631 14.18 49.4831 14.18ZM44.8031 5.86V4.14H51.1231V5.86H44.8031ZM54.5702 18.06L56.5302 13.34L52.7702 4.14H55.2102L57.7102 11.12L60.2502 4.14H62.6502L56.9702 18.06H54.5702ZM64.7956 14V11.48H67.2356V14H64.7956Z" fill="white"/>
</svg>
