<svg width="101" height="28" viewBox="0 0 101 28" fill="none" xmlns="http://www.w3.org/2000/svg">
<path d="M0.128906 20.91V0H5.22891L11.0789 15.63H10.4489L16.3289 0H21.3989V20.91H17.9189V4.05L18.2189 4.11L12.4589 19.08H9.06891L3.27891 4.11L3.60891 4.05V20.91H0.128906Z" fill="#141414"/>
<path d="M26.3365 20.91V6.12H29.6665V20.91H26.3365ZM26.1865 3.69V0H29.8165V3.69H26.1865Z" fill="#141414"/>
<path d="M40.5942 27.33C38.4142 27.33 36.6942 26.93 35.4342 26.13C34.1742 25.35 33.5442 24.28 33.5442 22.92C33.5442 22.8 33.5442 22.66 33.5442 22.5C33.5642 22.34 33.5942 22.18 33.6342 22.02L37.6542 19.41L38.5542 20.28L36.6042 22.71C36.5842 22.77 36.5742 22.82 36.5742 22.86C36.5742 22.92 36.5742 22.98 36.5742 23.04C36.5742 23.66 36.9442 24.13 37.6842 24.45C38.4442 24.79 39.4142 24.96 40.5942 24.96C41.5942 24.96 42.3942 24.82 42.9942 24.54C43.5942 24.28 43.8942 23.88 43.8942 23.34C43.8942 23.04 43.8042 22.79 43.6242 22.59C43.4442 22.41 43.1742 22.26 42.8142 22.14C42.4542 22.02 42.0042 21.91 41.4642 21.81C40.9442 21.73 40.3242 21.65 39.6042 21.57C38.7042 21.43 37.8142 21.23 36.9342 20.97C36.0742 20.71 35.3542 20.32 34.7742 19.8C34.2142 19.28 33.9342 18.59 33.9342 17.73C33.9342 16.97 34.1942 16.28 34.7142 15.66C35.2342 15.02 35.9242 14.5 36.7842 14.1L38.4942 15.42C37.9342 15.54 37.5142 15.75 37.2342 16.05C36.9542 16.33 36.8142 16.67 36.8142 17.07C36.8142 17.41 36.9442 17.69 37.2042 17.91C37.4642 18.11 37.8342 18.27 38.3142 18.39C38.8142 18.49 39.4042 18.59 40.0842 18.69C41.1042 18.81 42.0442 18.95 42.9042 19.11C43.7642 19.27 44.5142 19.5 45.1542 19.8C45.7942 20.08 46.2842 20.47 46.6242 20.97C46.9842 21.47 47.1642 22.12 47.1642 22.92C47.1642 24.34 46.5842 25.43 45.4242 26.19C44.2842 26.95 42.6742 27.33 40.5942 27.33ZM40.2642 16.62C39.0642 16.62 38.0042 16.39 37.0842 15.93C36.1642 15.47 35.4442 14.84 34.9242 14.04C34.4242 13.22 34.1742 12.3 34.1742 11.28C34.1742 10.18 34.4442 9.23 34.9842 8.43C35.5242 7.61 36.2442 6.98 37.1442 6.54C38.0642 6.08 39.0642 5.85 40.1442 5.85C41.2242 5.85 42.2142 6.08 43.1142 6.54C44.0142 6.98 44.7342 7.62 45.2742 8.46C45.8342 9.28 46.1142 10.26 46.1142 11.4C46.1142 12.44 45.8642 13.36 45.3642 14.16C44.8842 14.94 44.2042 15.55 43.3242 15.99C42.4442 16.41 41.4242 16.62 40.2642 16.62ZM40.2042 13.95C41.0642 13.95 41.7142 13.69 42.1542 13.17C42.5942 12.63 42.8142 11.99 42.8142 11.25C42.8142 10.45 42.5742 9.81 42.0942 9.33C41.6142 8.83 40.9842 8.58 40.2042 8.58C39.3842 8.58 38.7242 8.83 38.2242 9.33C37.7442 9.81 37.5042 10.44 37.5042 11.22C37.5042 11.98 37.7342 12.63 38.1942 13.17C38.6542 13.69 39.3242 13.95 40.2042 13.95ZM45.1542 9.12L42.7242 7.56L46.0542 4.86L47.7642 6.93L45.1542 9.12Z" fill="#141414"/>
<path d="M50.9302 20.91V0H54.2602V9.39L53.6602 9.54C53.9202 8.68 54.3002 7.98 54.8002 7.44C55.3202 6.9 55.9102 6.5 56.5702 6.24C57.2302 5.98 57.9302 5.85 58.6702 5.85C60.3302 5.85 61.6202 6.33 62.5402 7.29C63.4802 8.23 63.9502 9.58 63.9502 11.34V20.91H60.6202V12.57C60.6202 11.25 60.3802 10.28 59.9002 9.66C59.4202 9.04 58.6802 8.73 57.6802 8.73C56.5602 8.73 55.7102 9.13 55.1302 9.93C54.5502 10.73 54.2602 11.99 54.2602 13.71V20.91H50.9302Z" fill="#141414"/>
<path d="M73.7236 21.18C72.9836 21.18 72.2836 21.04 71.6236 20.76C70.9836 20.46 70.4736 19.99 70.0936 19.35C69.7136 18.69 69.5236 17.83 69.5236 16.77V2.52L72.8836 0.66V15.84C72.8836 16.68 73.0036 17.33 73.2436 17.79C73.5036 18.23 73.9636 18.45 74.6236 18.45C74.8236 18.45 75.0536 18.43 75.3136 18.39C75.5936 18.33 75.8836 18.26 76.1836 18.18V20.76C75.7836 20.9 75.3736 21 74.9536 21.06C74.5536 21.14 74.1436 21.18 73.7236 21.18ZM66.7036 8.7V6.12H76.1836V8.7H66.7036Z" fill="#141414"/>
<path d="M81.3541 27L84.2941 19.92L78.6541 6.12H82.3141L86.0641 16.59L89.8741 6.12H93.4741L84.9541 27H81.3541Z" fill="#141414"/>
<path d="M96.6923 20.91V17.13H100.352V20.91H96.6923Z" fill="#141414"/>
</svg>
