<svg width="25" height="91" viewBox="0 0 25 91" fill="none" xmlns="http://www.w3.org/2000/svg">
<path d="M19.1273 91H0V86.3693L14.2975 81.0577V81.6297L0 76.2909V71.6875H19.1273V74.8472H3.70472L3.75961 74.5748L17.4533 79.8047V82.8827L3.75961 88.1399L3.70472 87.8403H19.1273V91Z" fill="white"/>
<path d="M19.1273 67.2043H5.59824V64.1807H19.1273V67.2043ZM3.37541 67.3405H0V64.0445H3.37541V67.3405Z" fill="white"/>
<path d="M25 54.2587C25 56.238 24.6341 57.7997 23.9023 58.9438C23.1888 60.0878 22.21 60.6599 20.966 60.6599C20.8562 60.6599 20.7281 60.6599 20.5818 60.6599C20.4354 60.6417 20.2891 60.6145 20.1427 60.5781L17.7552 56.9281L18.551 56.1109L20.7739 57.8815C20.8288 57.8996 20.8745 57.9087 20.9111 57.9087C20.966 57.9087 21.0209 57.9087 21.0757 57.9087C21.6429 57.9087 22.0728 57.5728 22.3655 56.9009C22.6765 56.2108 22.8321 55.3301 22.8321 54.2587C22.8321 53.3507 22.704 52.6243 22.4479 52.0795C22.21 51.5347 21.8441 51.2624 21.3502 51.2624C21.0757 51.2624 20.8471 51.3441 20.6641 51.5075C20.4995 51.6709 20.3622 51.9161 20.2525 52.243C20.1427 52.5698 20.0421 52.9784 19.9506 53.4687C19.8774 53.9409 19.8042 54.5038 19.7311 55.1576C19.603 55.9747 19.4201 56.7828 19.1822 57.5818C18.9444 58.3627 18.5876 59.0164 18.112 59.543C17.6363 60.0515 17.0051 60.3057 16.2184 60.3057C15.5232 60.3057 14.8921 60.0697 14.3249 59.5975C13.7395 59.1254 13.2638 58.4989 12.8979 57.718L14.1054 56.1654C14.2151 56.6739 14.4072 57.0552 14.6817 57.3094C14.9378 57.5637 15.2488 57.6908 15.6147 57.6908C15.9257 57.6908 16.1819 57.5728 16.3831 57.3367C16.566 57.1006 16.7124 56.7647 16.8222 56.3288C16.9136 55.8749 17.0051 55.3391 17.0966 54.7217C17.2064 53.7956 17.3344 52.9421 17.4808 52.1612C17.6271 51.3804 17.8375 50.6994 18.112 50.1183C18.3681 49.5372 18.7248 49.0923 19.1822 48.7836C19.6396 48.4567 20.2342 48.2933 20.966 48.2933C22.2649 48.2933 23.262 48.8199 23.9572 49.8732C24.6524 50.9082 25 52.3701 25 54.2587ZM15.2031 54.5583C15.2031 55.6479 14.9927 56.6103 14.5719 57.4456C14.1511 58.281 13.5748 58.9347 12.843 59.4069C12.0929 59.8608 11.2514 60.0878 10.3183 60.0878C9.31211 60.0878 8.4431 59.8427 7.71131 59.3524C6.96121 58.8621 6.38492 58.2083 5.98244 57.3912C5.56165 56.5558 5.35126 55.6479 5.35126 54.6672C5.35126 53.6866 5.56165 52.7877 5.98244 51.9706C6.38492 51.1534 6.97036 50.4997 7.73875 50.0093C8.48884 49.5009 9.38529 49.2467 10.4281 49.2467C11.3794 49.2467 12.221 49.4737 12.9528 49.9276C13.6663 50.3635 14.2243 50.9809 14.6268 51.7799C15.011 52.5789 15.2031 53.505 15.2031 54.5583ZM12.7607 54.6128C12.7607 53.8319 12.5229 53.2417 12.0472 52.8422C11.5532 52.4427 10.9678 52.243 10.2909 52.243C9.55909 52.243 8.97365 52.4609 8.53458 52.8967C8.0772 53.3325 7.84852 53.9045 7.84852 54.6128C7.84852 55.3573 8.0772 55.9566 8.53458 56.4105C8.97365 56.8464 9.54994 57.0643 10.2634 57.0643C10.9587 57.0643 11.5532 56.8555 12.0472 56.4378C12.5229 56.0201 12.7607 55.4118 12.7607 54.6128ZM8.34248 50.1183L6.91548 52.3247L4.44566 49.3011L6.33919 47.7485L8.34248 50.1183Z" fill="white"/>
<path d="M19.1273 44.8739H0V41.8504H8.58946L8.72667 42.3952C7.93999 42.1591 7.29967 41.8141 6.80571 41.3601C6.31175 40.8879 5.94585 40.3522 5.70801 39.753C5.47018 39.1537 5.35126 38.5181 5.35126 37.8462C5.35126 36.339 5.79034 35.1677 6.6685 34.3324C7.52836 33.4789 8.76326 33.0521 10.3732 33.0521H19.1273V36.0757H11.4984C10.2909 36.0757 9.40359 36.2936 8.83644 36.7294C8.2693 37.1653 7.98573 37.8372 7.98573 38.7451C7.98573 39.762 8.35163 40.5338 9.08342 41.0604C9.81522 41.5871 10.9678 41.8504 12.5412 41.8504H19.1273V44.8739Z" fill="white"/>
<path d="M19.3743 24.1781C19.3743 24.85 19.2462 25.4856 18.9901 26.0849C18.7157 26.666 18.2858 27.129 17.7003 27.4741C17.0966 27.8191 16.3099 27.9916 15.3403 27.9916H2.30516L0.603733 24.9408H14.4896C15.258 24.9408 15.8525 24.8319 16.2733 24.614C16.6758 24.3779 16.8771 23.9602 16.8771 23.361C16.8771 23.1794 16.8588 22.9705 16.8222 22.7345C16.7673 22.4802 16.7033 22.2169 16.6301 21.9445H18.9901C19.1182 22.3077 19.2097 22.68 19.2645 23.0613C19.3377 23.4245 19.3743 23.7968 19.3743 24.1781ZM7.95829 30.5521H5.59824V21.9445H7.95829V30.5521Z" fill="white"/>
<path d="M24.6981 17.2498L18.2217 14.5804L5.59824 19.7013V16.3782L15.1756 12.9733L5.59824 9.51391V6.24521L24.6981 13.9811V17.2498Z" fill="white"/>
<path d="M19.1273 3.32317H15.6696V0H19.1273V3.32317Z" fill="white"/>
</svg>
